<svg xmlns="http://www.w3.org/2000/svg"  viewBox="0 0 100 100" width="50px" height="50px"><circle cx="79" cy="13" r="1" fill="#f1bc19"/><circle cx="50" cy="50" r="37" fill="#c0e5e4"/><circle cx="85" cy="15" r="4" fill="#f1bc19"/><circle cx="13" cy="29" r="2" fill="#00a5a5"/><circle cx="80" cy="78" r="2" fill="#f5e690"/><circle cx="26" cy="76" r="4" fill="#f5e690"/><circle cx="27" cy="87" r="2" fill="#00a5a5"/><circle cx="58.5" cy="80.5" r="2.5" fill="#fff"/><circle cx="23.029" cy="68.971" r=".971" fill="#fff"/><circle cx="85" cy="31" r="1" fill="#f1bc19"/><circle cx="78" cy="68" r="2" fill="#fff"/><circle cx="79" cy="34" r="1" fill="#fff"/><circle cx="50" cy="50" r="23.958" fill="#78a0cf"/><path fill="#472b29" d="M50,26.4c13.013,0,23.6,10.587,23.6,23.6S63.013,73.6,50,73.6S26.4,63.013,26.4,50 S36.987,26.4,50,26.4 M50,25c-13.807,0-25,11.193-25,25s11.193,25,25,25s25-11.193,25-25S63.807,25,50,25L50,25z"/><path fill="#fdfcef" d="M62.857,58.929c-2.286,2.5-6.357,6.429-6.571,6.571c-0.571,0.5-1.214,0.786-1.929,0.786 s-1.429-0.286-2-0.857c-1.071-1.143-1-2.857,0.071-3.929c0.071-0.071,4.143-3.929,6.286-6.286c1-1.143,1.5-2.571,1.429-4.071 C60.071,49.572,59.285,48.072,58,47c-1.714-1.429-5-1.786-7.071,0.071c-1.214,1.143-2.714,2.714-2.786,2.786 C47.071,51,45.357,51.072,44.214,50c-1.143-1.071-1.214-2.786-0.143-3.929c0.071-0.071,1.714-1.857,3.143-3.143 c3.929-3.571,10.428-3.643,14.428-0.143c2.429,2.071,3.857,4.929,4.071,8C65.928,53.786,64.928,56.714,62.857,58.929 M46.071,59.143c-2.571,0-5.143-0.857-7.143-2.571c-2.429-2.071-3.857-4.929-4.071-8c-0.214-3,0.857-5.857,2.857-8.143 c2.286-2.5,6.357-6.429,6.571-6.571c1.143-1.071,2.857-1,3.929,0.071c1.071,1.143,1,2.857-0.071,3.929 c-0.071,0.071-4.143,3.929-6.286,6.286c-1,1.143-1.5,2.571-1.429,4.071c0.071,1.571,0.857,3.071,2.143,4.143 c1.714,1.429,5,1.786,7.071-0.071c1.214-1.143,2.714-2.714,2.786-2.786c1.071-1.143,2.786-1.214,3.929-0.143 s1.214,2.786,0.143,3.929c-0.071,0.071-1.714,1.857-3.143,3.143C51.357,58.214,48.714,59.143,46.071,59.143"/><g><path fill="#472b29" d="M54.357,66.536c-0.804,0-1.577-0.331-2.177-0.93c-1.145-1.221-1.111-3.1,0.071-4.282l0.108-0.104 c1.575-1.503,4.471-4.305,6.169-6.173c0.946-1.082,1.432-2.465,1.364-3.892c-0.068-1.487-0.816-2.931-2.053-3.963 c-1.637-1.363-4.809-1.67-6.745,0.066c-0.686,0.646-1.583,1.542-2.663,2.66l-0.113,0.117c-0.559,0.596-1.308,0.944-2.104,0.974 c-0.797,0.028-1.571-0.263-2.171-0.827c-0.602-0.564-0.951-1.313-0.981-2.11c-0.03-0.8,0.263-1.571,0.827-2.171l0.088-0.094 c1.49-1.59,2.492-2.544,3.07-3.064c4.035-3.669,10.658-3.734,14.76-0.145c0.104,0.091,0.115,0.249,0.023,0.353 c-0.091,0.105-0.249,0.114-0.353,0.023c-3.918-3.428-10.241-3.364-14.096,0.14c-0.572,0.515-1.563,1.458-3.04,3.035l-0.094,0.099 c-0.466,0.497-0.711,1.14-0.686,1.805c0.025,0.664,0.317,1.291,0.823,1.764c0.502,0.472,1.139,0.71,1.811,0.692 c0.664-0.025,1.291-0.317,1.765-0.823l0.112-0.116c1.086-1.125,1.989-2.026,2.685-2.681c2.164-1.938,5.573-1.606,7.403-0.082 c1.345,1.121,2.158,2.697,2.232,4.324c0.074,1.556-0.455,3.064-1.49,4.247c-1.712,1.884-4.617,4.694-6.197,6.203l-0.101,0.096 c-0.989,0.99-1.019,2.563-0.064,3.58c0.5,0.5,1.147,0.778,1.817,0.778c0.622,0,1.215-0.244,1.764-0.724 c0.1-0.075,0.674-0.61,1.711-1.62c0.099-0.096,0.257-0.094,0.354,0.005s0.094,0.257-0.005,0.354 c-0.162,0.158-1.585,1.544-1.756,1.658C55.807,66.25,55.103,66.536,54.357,66.536z M59.938,62.21 c-0.064,0-0.127-0.024-0.176-0.073c-0.098-0.098-0.098-0.256-0.001-0.354c1.173-1.178,2.18-2.224,2.911-3.023 c0.001-0.001,0.001-0.002,0.002-0.003c2.012-2.151,3.003-4.976,2.79-7.954c-0.172-2.47-1.131-4.765-2.775-6.636 c-0.091-0.104-0.081-0.262,0.023-0.353c0.103-0.09,0.263-0.081,0.353,0.023c1.716,1.955,2.718,4.352,2.898,6.931 c0.223,3.118-0.815,6.076-2.923,8.33c-0.736,0.805-1.748,1.855-2.925,3.038C60.066,62.186,60.002,62.21,59.938,62.21z M46.071,59.393c-1.071,0-2.131-0.145-3.149-0.43c-0.133-0.037-0.21-0.175-0.173-0.308c0.037-0.132,0.176-0.211,0.308-0.173 c0.975,0.273,1.989,0.412,3.015,0.412c2.676,0,5.205-0.941,7.119-2.651c0.57-0.513,1.561-1.457,3.038-3.034l0.094-0.099 c0.466-0.497,0.712-1.14,0.687-1.805c-0.025-0.664-0.317-1.291-0.823-1.765c-1.03-0.965-2.599-0.907-3.576,0.131l-0.374,0.387 c-0.096,0.099-0.254,0.102-0.354,0.005c-0.099-0.096-0.101-0.254-0.005-0.354l0.373-0.386c1.161-1.238,3.042-1.304,4.276-0.148 c0.602,0.565,0.95,1.314,0.98,2.11c0.03,0.8-0.263,1.571-0.827,2.171l-0.088,0.094c-1.489,1.59-2.491,2.544-3.069,3.064 C51.517,58.407,48.871,59.393,46.071,59.393z M41.039,58.221c-0.038,0-0.076-0.008-0.112-0.026 c-0.781-0.392-1.508-0.874-2.161-1.433c-2.46-2.099-3.937-5.001-4.159-8.172c-0.212-2.975,0.824-5.932,2.919-8.325 c0.611-0.668,1.385-1.479,2.304-2.412c0.097-0.099,0.256-0.1,0.354-0.003c0.099,0.097,0.1,0.255,0.003,0.354 c-0.915,0.929-1.685,1.734-2.288,2.394c-2.002,2.289-2.996,5.116-2.792,7.957c0.212,3.037,1.627,5.816,3.984,7.827 c0.622,0.533,1.315,0.993,2.06,1.366c0.124,0.062,0.173,0.212,0.112,0.335C41.218,58.17,41.13,58.221,41.039,58.221z M46.13,53.8 c-1.363,0-2.735-0.431-3.719-1.251c-1.345-1.121-2.158-2.697-2.232-4.324c-0.074-1.556,0.455-3.064,1.49-4.247 c1.701-1.871,4.604-4.681,6.184-6.19l0.113-0.108c0.99-0.99,1.019-2.563,0.065-3.581c-0.984-0.984-2.558-1.014-3.575-0.06 c-0.13,0.099-0.983,0.902-2.262,2.159c-0.098,0.096-0.256,0.096-0.354-0.003c-0.097-0.099-0.096-0.257,0.003-0.354 c1.007-0.99,2.157-2.095,2.303-2.192c1.183-1.115,3.062-1.08,4.244,0.103c1.145,1.221,1.111,3.1-0.072,4.282l-0.121,0.116 c-2.719,2.597-4.906,4.785-6.156,6.161c-0.96,1.098-1.433,2.444-1.364,3.892c0.068,1.487,0.816,2.932,2.054,3.963 c1.266,1.055,3.711,1.627,5.745,0.612c0.125-0.063,0.273-0.012,0.335,0.112s0.012,0.274-0.112,0.335 C47.923,53.612,47.028,53.8,46.13,53.8z M49.973,52.222c-0.065,0-0.131-0.026-0.18-0.077c-0.096-0.1-0.093-0.258,0.007-0.354 c0.344-0.331,0.698-0.682,1.027-1.011c0.098-0.098,0.256-0.098,0.354,0c0.098,0.097,0.098,0.256,0,0.354 c-0.331,0.332-0.688,0.685-1.034,1.018C50.098,52.199,50.035,52.222,49.973,52.222z"/></g><g><path fill="#472b29" d="M50,71c-11.579,0-21-9.42-21-21s9.421-21,21-21c6.554,0,12.614,2.978,16.626,8.169 c0.169,0.218,0.129,0.532-0.09,0.701c-0.218,0.167-0.532,0.128-0.701-0.09C62.014,32.836,56.242,30,50,30 c-11.028,0-20,8.972-20,20s8.972,20,20,20c3.442,0,6.837-0.889,9.816-2.571c0.239-0.135,0.545-0.052,0.682,0.19 c0.136,0.24,0.051,0.545-0.189,0.681C57.179,70.066,53.614,71,50,71z"/></g><g><path fill="#472b29" d="M62.377,66.843c-0.15,0-0.3-0.068-0.398-0.198c-0.167-0.22-0.124-0.534,0.097-0.701 c0.724-0.548,1.418-1.154,2.063-1.799c0.195-0.195,0.512-0.195,0.707,0s0.195,0.512,0,0.707c-0.678,0.678-1.407,1.313-2.167,1.889 C62.589,66.81,62.482,66.843,62.377,66.843z"/></g><g><path fill="#472b29" d="M66.297,62.938c-0.106,0-0.213-0.034-0.304-0.103c-0.22-0.168-0.261-0.482-0.094-0.701 C68.582,58.625,70,54.429,70,50c0-3.217-0.782-6.415-2.262-9.248c-0.128-0.245-0.033-0.547,0.212-0.675 c0.245-0.127,0.546-0.033,0.675,0.212C70.179,43.265,71,46.622,71,50c0,4.65-1.489,9.056-4.306,12.741 C66.596,62.87,66.447,62.938,66.297,62.938z"/></g></svg>